<svg xmlns="http://www.w3.org/2000/svg" width="64" height="16"><g transform="translate(0)"><rect width="16" height="16" rx="2" fill="#d97722"/><path d="M1 5h14M1 11h14M5 1v4M12 5v6M4 11v4" stroke="#8a4218" stroke-width="2"/></g><g transform="translate(16)"><rect width="16" height="16" fill="#b85c2b"/><path d="M0 5h16M0 11h16M5 0v5M12 5v6M4 11v5" stroke="#733515" stroke-width="2"/></g><g transform="translate(32)"><rect width="16" height="16" rx="2" fill="#fbd000"/><rect x="2" y="2" width="12" height="12" rx="2" fill="#ffdf3d"/><path d="M6 4h4v8H6z" fill="#9c6d00"/></g><g transform="translate(48)"><rect width="16" height="16" fill="#4b9f35"/><path d="M0 4h16M0 10h16" stroke="#28652a" stroke-width="2"/></g></svg>